<svg width="6780" height="6570" viewBox="0 0 6780 6570" fill="none" xmlns="http://www.w3.org/2000/svg">
<rect width="6780" height="6570" fill="#F5F5F5"/>
<rect width="6780" height="6570" fill="white"/>
<path d="M6289.46 4564.08C6414.77 4682.32 6558.7 4818.6 6650.74 4967.56C6740.65 5113.19 6605.4 5229.05 6487.64 5273.24C6243.53 5364.71 5953.48 5430.22 5756.01 5584.03C5647.32 5669.03 5528.46 5793.89 5438.11 5867.15C4963.57 6252.34 4339.64 6361.09 3763.7 6222.2C3497.96 6158.26 3194.42 6074.77 2852.86 5971.78C2207.38 5776.99 1569.11 5479.99 1053.58 5020.5C505.244 4531.85 229.125 3857.15 91.3928 3125.31C51.1903 2911.31 49.4969 2715.88 86.9137 2509.8C109.364 2386.1 191.025 2221.37 182.613 2098.71C172.126 1944 162.293 1797.79 187.475 1643.51C226.12 1405.58 406.513 1340.45 587.451 1249.85C596.655 1245.29 601.845 1234.37 599.824 1223.63C577.619 1105.53 509.067 877.497 576.063 772.961C607.935 723.393 654.447 698.856 715.351 699.785C846.638 701.615 969.129 712.504 1083.02 732.598C1143.1 743.226 1190.68 725.513 1226.13 679.168C1746.91 -1.82648 2588.02 118.39 3260.29 424.971C3831.7 685.557 4390.44 1000.41 4940.77 1308.21C5091.74 1392.57 5238.24 1484.68 5380.07 1584.8C5783.33 1869.31 6092.27 2258.54 6285.45 2729.41C6522.87 3307.38 6449.59 3955.16 6282.64 4538.82C6280.07 4547.76 6282.8 4557.69 6289.46 4564.08ZM448.354 2653.04C482.493 3061.37 884.874 3524.47 1182.65 3778.67C1679.09 4202.62 2207.92 4600.67 2766.28 4927.49C3051.03 5094.31 3348.18 5199.72 3667.72 5241.59C4093.7 5297.28 4504.11 5263.95 4898.98 5141.79C5184.17 5053.43 5371.69 4991.95 5461.38 4957.31C5742.5 4848.88 5991.3 4854.31 6282.44 4904.17C6287 4904.98 6287.55 4903.76 6284 4900.69C6167.65 4800.59 5945.23 4697.02 5992.59 4503.39C6053.03 4257.21 6113.3 4024.62 6142.34 3758.14C6231.1 2942.84 5796.3 2212.6 5156.58 1802.29C4994.43 1698.28 4829.12 1600.13 4660.82 1507.56C4255.19 1284.78 3847.49 1066.24 3437.54 852.234C2892.4 567.46 2188.31 260.095 1629.25 698.566C1530.11 776.329 1429.27 894.571 1340.07 999.397C1288.73 1059.45 1224.71 1080.27 1147.88 1061.83C1029.16 1033.37 909.645 1004.19 789.638 974.425C785.187 973.322 784.176 974.861 786.47 979.129C833.801 1065.89 914.78 1182.68 925.431 1274.73C966.125 1627.34 402.28 1433.45 408.479 1859.15C410.336 1991.85 460.863 2148.66 448.9 2283.39C438.249 2406.63 438.139 2529.75 448.354 2653.04ZM560.003 3753.4C815.912 4438.87 1384.76 4976.18 2002.38 5283.49C2599.95 5580.69 3190.43 5777.43 3817.94 5889.95C4283.16 5973.29 4766.25 5894.83 5153.2 5589.64C5330.72 5449.44 5475.8 5246.32 5686.15 5177.65C5922.01 5100.64 6210.34 5058.3 6471.52 5018.67C6474.09 5018.23 6475.95 5015.97 6475.95 5013.24C6475.95 5010.54 6474.09 5008.3 6471.63 5007.78C6158.45 4946.74 5813.15 4950.52 5508.08 5053.31C5152.02 5172.94 4803.25 5307.88 4423.27 5352.75C4117.33 5389.04 3812.8 5378.82 3509.51 5322.26C3127.83 5251.35 2811.51 5079.79 2490.33 4869.85C2050.61 4582.52 1626.19 4271.9 1216.9 3937.79C854.148 3641.49 517.07 3263.42 380.239 2787.31C372.1 2758.57 362.405 2694.34 351.48 2594.68C350.852 2589.8 350.196 2589.65 349.377 2594.5C292.132 2881.11 386.166 3208.94 469.275 3480.33C503.141 3591.02 533.238 3682.06 560.003 3753.4Z" fill="#230A01"/>
<path d="M1182.65 3778.67C884.874 3524.47 482.494 3061.37 448.354 2653.04C438.14 2529.75 438.249 2406.63 448.9 2283.39C460.863 2148.66 410.337 1991.85 408.479 1859.15C402.28 1433.45 966.126 1627.34 925.431 1274.73C914.78 1182.68 833.801 1065.89 786.471 979.129C784.176 974.861 785.187 973.322 789.639 974.425C909.645 1004.19 1029.16 1033.37 1147.88 1061.83C1224.71 1080.27 1288.73 1059.45 1340.07 999.398C1429.27 894.571 1530.11 776.329 1629.25 698.566C2188.31 260.095 2892.41 567.46 3437.54 852.234C3847.49 1066.24 4255.19 1284.78 4660.82 1507.56C4829.12 1600.13 4994.43 1698.28 5156.58 1802.29C5796.3 2212.6 6231.1 2942.84 6142.34 3758.14C6113.3 4024.62 6053.03 4257.21 5992.59 4503.39C5945.23 4697.02 6167.65 4800.59 6284 4900.69C6287.55 4903.76 6287.01 4904.98 6282.44 4904.17C5991.3 4854.31 5742.5 4848.88 5461.38 4957.31C5371.69 4991.95 5184.17 5053.43 4898.98 5141.79C4504.11 5263.95 4093.7 5297.29 3667.72 5241.59C3348.18 5199.72 3051.03 5094.31 2766.28 4927.49C2207.92 4600.67 1679.09 4202.62 1182.65 3778.67ZM5588.05 4370.05C5604.11 4252.79 5602.93 4135.63 5584.64 4018.69C5574.39 3903.03 5571.94 3826 5577.34 3787.46C5703.36 2884.77 5048.05 2098.54 4374.27 1671.33C4256.01 1596.36 4136.23 1524.46 4014.77 1455.81C3890.31 1385.66 3806.93 1252.08 3689.14 1168.17C3521.99 1049.11 3337.25 982.556 3135.15 968.385C3032.84 961.3 2922.99 934.498 2845.37 899.275C2433.71 712.156 1889.58 841.955 1614.91 1226.42C1554.01 1311.7 1514.32 1440.42 1466.96 1518.45C1448.5 1549.14 1421.63 1565.49 1386.45 1567.32C1247.38 1574.87 1006.33 1583.41 952.606 1750.61C835.249 2115.55 853.193 2612.8 1027.71 2958.93C1141.96 3185.51 1287.17 3348.12 1485.59 3470.57C1557.42 3514.94 1613.9 3552.93 1654.87 3584.49C1923.17 3791.09 2181.08 4011.43 2428.33 4245.54C2529.44 4341.13 2599.13 4403.15 2637.26 4431.44C2903.38 4628.6 3215.01 4687.35 3526.03 4703.98C3986.91 4728.67 4474.07 4727.71 4979.6 4721.81C5106.96 4720.45 5208.2 4712.61 5283.2 4698.23C5493.42 4658.16 5569.42 4610.31 5588.05 4370.05Z" fill="#FEF3DD"/>
<path d="M5584.64 4018.69C5580.89 4136.64 5594.66 4252.5 5588.05 4370.05C5569.42 4610.31 5493.42 4658.16 5283.2 4698.24C5208.2 4712.61 5106.96 4720.45 4979.6 4721.81C4474.07 4727.71 3986.91 4728.67 3526.03 4703.98C3215.01 4687.35 2903.38 4628.6 2637.26 4431.44C2599.13 4403.15 2529.44 4341.13 2428.33 4245.54C2181.08 4011.43 1923.18 3791.09 1654.87 3584.49C1613.9 3552.93 1557.42 3514.94 1485.59 3470.57C1287.17 3348.12 1141.96 3185.51 1027.71 2958.93C853.193 2612.8 835.249 2115.55 952.606 1750.61C1006.33 1583.41 1247.38 1574.87 1386.45 1567.32C1421.63 1565.49 1448.5 1549.14 1466.96 1518.45C1514.32 1440.42 1554.01 1311.7 1614.91 1226.42C1889.58 841.955 2433.71 712.155 2845.38 899.275C2922.99 934.498 3032.84 961.3 3135.15 968.385C3337.26 982.556 3521.99 1049.11 3689.14 1168.17C3806.93 1252.08 3890.31 1385.66 4014.77 1455.81C4136.23 1524.46 4256.01 1596.36 4374.27 1671.33C5048.05 2098.54 5703.36 2884.77 5577.34 3787.46C5571.94 3826 5574.39 3903.03 5584.64 4018.69ZM3355.12 2036.98C3336.82 2098.13 3330.26 2139.28 3335.67 2160.39C3360.58 2255.72 3517.51 2427.83 3623.59 2363.83C3626.87 2361.71 3628.23 2357.35 3626.59 2353.72C3596 2283.39 3573.06 2206.15 3557.99 2121.85C3557.85 2121.27 3557.85 2120.49 3557.85 2119.91C3557.85 2114.89 3561.76 2110.97 3566.23 2110.97C3569.79 2110.97 3573.06 2113.35 3574.24 2116.83C3595.54 2174.62 3627.58 2229.21 3670.37 2281.13C3683.89 2297.45 3697.82 2297.91 3712.35 2282.35C3796.83 2190.53 3783.03 2049.7 3709.51 1944.93C3683.62 1890.8 3653.58 1840.68 3619.3 1794.74C3618.89 1794.31 3618.62 1793.52 3618.62 1792.77C3618.62 1791.26 3619.77 1790.04 3621.13 1790.04C3621.9 1790.04 3622.58 1790.33 3622.99 1790.82C3785.9 1936.3 3893.7 2164.69 3822.85 2389.87C3822.58 2390.6 3822.42 2391.41 3822.42 2392.11C3822.42 2395.88 3825.15 2399.25 3828.59 2399.83C3952.42 2420.16 4069.94 2455.21 4180.91 2505.24C4181.92 2505.73 4183.09 2506.02 4184.18 2506.02C4189.02 2506.02 4192.84 2501.76 4192.84 2496.82C4192.84 2495.86 4192.71 2494.85 4192.3 2493.74C4131.66 2313.01 4168.81 2166.66 4303.65 2054.57C4304.41 2053.99 4305.37 2053.7 4306.38 2053.7C4308.64 2053.7 4310.47 2055.65 4310.47 2058.06C4310.47 2059.13 4310.2 2060 4309.65 2060.79C4221.71 2189.6 4212.23 2326.19 4280.92 2470.31C4326.48 2565.93 4366.95 2663.79 4402.51 2763.88C4403.96 2767.95 4406.34 2771.58 4409.61 2774.19L4415.9 2779.76C4415.24 2781.45 4414.07 2782.61 4412.51 2783.54C4410.52 2784.41 4409.34 2786.73 4409.78 2789C4419.06 2831.34 4426.82 2866.76 4452.93 2902.54C4499.96 2967.29 4546.8 3025.37 4577.52 3106.9C4611.45 3197.04 4616.44 3327.21 4699.01 3384.27C4760.73 3426.9 4830.84 3443.51 4909.36 3434.16C4966.99 3450.48 5088.58 3464.71 5131.81 3503.1C5135.55 3506.29 5134.95 3507.54 5130.25 3507.05L4980.92 3486.63L4852.22 3499.5C4840.21 3500.72 4831.11 3511.31 4831.11 3524C4831.11 3527.49 4831.85 3530.97 4833.11 3534.11C4855.42 3586.03 4889.75 3642.27 4909.09 3690.04C5005.09 3927.34 4996.26 4160.11 4882.46 4388.34C4881.91 4389.71 4881.5 4391.07 4881.5 4392.52C4881.5 4397.69 4885.46 4401.76 4890.3 4401.76C4891.01 4401.76 4891.88 4401.76 4892.56 4401.47C5189.44 4310.14 5378.52 4060.13 5387.31 3728.6C5386 3531.44 5320.73 3366.27 5191.27 3233.22C5142.93 3183.27 5059.03 3166.34 5022.43 3113.58C4991.57 3068.92 4977.09 3003.15 4965.29 2949.87C4914.06 2719.54 4721.18 2657.22 4541.34 2591.31C4495.59 2574.55 4481.93 2541.25 4483.79 2493.45C4488.43 2366.73 4502.69 2269.95 4444.79 2143.2C4384.92 2012.38 4299.28 1925.99 4181.02 1857.03C4079.36 1797.79 3996.01 1756.47 3921.72 1656.52C3798.66 1490.95 3686.9 1328.74 3494.02 1249.06C3408.37 1202.02 3242.68 1129.72 3152.08 1150.92C3114.04 1159.98 3075.39 1166.51 3036.12 1170.87C3031.83 1171.3 3027.38 1170.29 3023.56 1168.05L2926.41 1110.84C2846.03 1055.38 2756.45 1026.11 2657.31 1023.15C2368.52 1014.35 1835.4 1130.36 1845.34 1547.78C1845.88 1572.26 1857.71 1602.08 1879.64 1608.09C2049.52 1654.84 2135.55 1750.26 2297.83 1900.88C2301.38 1904.07 2306.52 1903.93 2309.8 1900.59L2336.67 1872.62C2339.57 1869.72 2340.49 1865.25 2339.07 1861.3C2298.71 1750.08 2305.21 1642.29 2358.6 1537.76C2360.6 1533.69 2361.52 1533.98 2361.52 1538.69C2357.59 1687.07 2357.86 1771.46 2515.18 1796.72C2623.99 1814.26 2701.55 1860.37 2796.82 1913.57C2800.86 1915.89 2801.24 1915.11 2798.13 1911.77C2704.37 1808.04 2609.95 1712.91 2552.71 1579.52C2494.53 1443.91 2437.67 1280.43 2321.32 1195.84C2320.18 1194.88 2319.46 1193.6 2319.46 1192.06C2319.46 1189.3 2321.46 1187.21 2324 1187.21C2324.46 1187.21 2324.87 1187.33 2325.42 1187.5C2532.11 1275.26 2644.64 1446.29 2782.07 1618.43C2918.02 1788.88 3089.18 1897.77 3295.25 1945.22C3310.6 1948.7 3322.43 1945.1 3330.97 1934.36C3382.78 1869.14 3431.4 1816.09 3476.93 1775.06C3480.37 1771.86 3480.75 1772.38 3478.24 1776.3C3422.85 1856.01 3381.88 1942.78 3355.12 2036.98ZM1819.75 3120.03C1783.23 3097.82 1743.96 3084.55 1702.12 3080.39C1698.13 3079.96 1694.47 3083.15 1693.7 3087.51L1683.19 3160.1C1679.37 3181.88 1681.36 3202.64 1689.47 3222.3C1682.51 3305.58 1752.92 3425.07 1804.81 3482.86C1876.91 3563 1964.85 3597.64 2068.55 3586.9C2073.55 3586.32 2078.03 3589.8 2079.34 3594.8C2147.48 3854.74 2548.5 3903.03 2750.17 3882.27C2750.88 3882.27 2751.48 3882.13 2752.16 3882.13C2763.28 3881.98 2772.64 3891.8 2772.78 3903.91C2772.78 3904.49 2772.78 3905.15 2772.64 3905.73C2770.38 3938.08 2778.19 3972.14 2796.27 4007.77L2800.23 4015.7C2883.45 4258.25 3130.43 4237.4 3323.87 4190.51C3323.98 4190.51 3324.26 4190.51 3324.42 4190.36C3333.98 4188.56 3343.37 4195.24 3345.23 4205.17C3345.23 4205.46 3345.23 4205.61 3345.23 4205.99C3357.58 4292.14 3382.78 4373.53 3420.88 4450.31C3423.12 4454.75 3427.16 4457.86 3431.67 4458.82C3460.7 4465.29 3509.24 4471.51 3577.24 4477.26C3821.76 4498.31 4041.35 4508.97 4236.27 4509.2C4374.93 4509.34 4477.24 4486.61 4575.67 4396.18C4690.32 4291.07 4757.02 4156.74 4775.94 3993.25C4781.6 3855.5 4745.08 3732.58 4666.42 3624.71C4581.35 3508.12 4484.72 3504.05 4362.86 3488.17C4358.54 3487.59 4354.44 3485.38 4351.44 3482.13C4325.99 3452.57 4379.03 3350.24 4392.03 3315.45C4439.82 3187.34 4362.45 3028.85 4278.96 2931.57C4064.01 2681.5 3814.93 2523.88 3498.5 2715.3C3479.82 2705.66 3467.37 2691.72 3461.85 2673.57C3391.71 2447.8 3250.32 2365.05 3054.42 2284.18C2978.66 2252.67 2934.14 2207.95 2869.14 2152.55C2782.2 2078.3 2639.64 2002.89 2525.12 2016.3C2440.18 2026.12 2365.98 2073.8 2298.6 2126.7C2289.04 2134.25 2279.04 2135.5 2268.67 2130.65C2005.82 1742.42 1418.73 1582.13 1154.9 2076.64C960.609 2440.54 1187.89 2707.05 1458.77 2887.58C1649.6 3015.06 1771.68 3082.72 1978.62 3075.75C1978.89 3075.75 1979.05 3075.75 1979.16 3075.75C1981.89 3075.75 1984.16 3078.16 1984.16 3081.06C1984.16 3083.59 1982.33 3085.82 1979.79 3086.11L1819.75 3120.03ZM4722.6 2376.89C4716.76 2417.26 4708.21 2499.78 4756.42 2515.81C4953.88 2581.81 5065.72 2721.86 5165.4 2907.82C5168.82 2913.92 5169.37 2913.8 5167.23 2907.12C5100.4 2700.78 4974.5 2551.82 4789.6 2460.35C4785.15 2458.2 4781.49 2454.54 4779.08 2449.89L4740.08 2373.7C4731.29 2356.39 4725.42 2357.5 4722.6 2376.89Z" fill="#230A01"/>
<path d="M2926.41 1110.84C2851.3 1099.23 2780.48 1108.43 2714.06 1138.34C2711.19 1139.71 2709.36 1142.79 2709.36 1146.1C2709.36 1149.38 2711.19 1152.28 2714.06 1153.65C2748.88 1170.14 2786.44 1181.61 2817.16 1201.27C2915.21 1263.99 2990.73 1345.88 3116.63 1308.94C3097.46 1470.04 3162.46 1625.39 3313.49 1684.34C3314.37 1684.63 3315.19 1684.92 3316.06 1684.92C3319.78 1684.92 3322.89 1681.64 3322.89 1677.66C3322.89 1674.96 3321.47 1672.55 3319.34 1671.33C3196.6 1594.96 3158.15 1450.65 3151.73 1305.31C3433.86 1287.8 3552.2 1513.6 3729.28 1722.29C3730.38 1723.83 3732.23 1724.7 3734.09 1724.7C3736.11 1724.7 3738.11 1723.54 3739.28 1721.86L3769.51 1676.62C3771.62 1673.42 3771.84 1669.24 3769.65 1665.87L3754.41 1642C3751.9 1638.23 3752.17 1632.94 3755.31 1629.29L3777.35 1603.44C3780.25 1599.96 3780.25 1594.82 3777.52 1591.48L3494.02 1249.06C3686.9 1328.74 3798.66 1490.95 3921.72 1656.52C3996.01 1756.47 4079.36 1797.79 4181.02 1857.03C4299.28 1925.99 4384.92 2012.38 4444.79 2143.2C4502.69 2269.95 4488.43 2366.73 4483.79 2493.45C4481.93 2541.25 4495.59 2574.55 4541.34 2591.31C4721.18 2657.22 4914.06 2719.54 4965.29 2949.87C4977.09 3003.15 4991.57 3068.92 5022.43 3113.58C5059.03 3166.34 5142.93 3183.27 5191.27 3233.22C5320.73 3366.27 5386 3531.44 5387.31 3728.6C5340.2 3850.97 5263.53 3942.32 5157.13 4002.49C5109.06 4029.73 5000.53 4039.6 5032.53 3938.26C5081.48 3783.4 5082.19 3618.96 4980.92 3486.63L5130.25 3507.05C5134.95 3507.54 5135.55 3506.29 5131.81 3503.1C5088.58 3464.71 4966.99 3450.48 4909.36 3434.16C4845.78 3387.9 4808.63 3331.37 4797.71 3264.35C4757.84 3018.25 4630.56 2856.71 4415.9 2779.76L4409.61 2774.19C4406.34 2771.58 4403.96 2767.95 4402.51 2763.88C4366.95 2663.79 4326.48 2565.93 4280.92 2470.31C4212.23 2326.19 4221.71 2189.6 4309.65 2060.79C4310.2 2060 4310.47 2059.13 4310.47 2058.06C4310.47 2055.65 4308.64 2053.7 4306.38 2053.7C4305.37 2053.7 4304.41 2053.99 4303.65 2054.57C4168.81 2166.66 4131.66 2313.01 4192.3 2493.74C4192.71 2494.85 4192.84 2495.86 4192.84 2496.82C4192.84 2501.76 4189.02 2506.02 4184.18 2506.02C4183.09 2506.02 4181.92 2505.73 4180.91 2505.24C4069.94 2455.21 3952.42 2420.16 3828.59 2399.83C3825.15 2399.25 3822.42 2395.88 3822.42 2392.11C3822.42 2391.41 3822.58 2390.6 3822.85 2389.87C3893.7 2164.69 3785.9 1936.3 3622.99 1790.82C3622.58 1790.33 3621.9 1790.04 3621.13 1790.04C3619.77 1790.04 3618.62 1791.26 3618.62 1792.77C3618.62 1793.52 3618.89 1794.31 3619.3 1794.74C3653.58 1840.68 3683.62 1890.8 3709.51 1944.93C3673.38 1994.96 3634.51 2039.59 3593 2078.59C3589.72 2081.93 3585.03 2083.15 3580.66 2082.07L3561.54 2077.43C3557.03 2076.18 3552.2 2078.73 3550.48 2083.44L3544.93 2098.13C3543.24 2102.83 3538.92 2105.97 3534.23 2105.97C3488.29 2106.61 3360.47 2093.6 3355.12 2036.98C3381.88 1942.78 3422.85 1856.01 3478.24 1776.3C3480.75 1772.38 3480.37 1771.86 3476.93 1775.06C3431.4 1816.09 3382.78 1869.14 3330.97 1934.36C3322.43 1945.1 3310.6 1948.7 3295.25 1945.22C3089.18 1897.77 2918.02 1788.88 2782.07 1618.43C2644.64 1446.29 2532.11 1275.26 2325.42 1187.5C2324.87 1187.33 2324.46 1187.21 2324 1187.21C2321.46 1187.21 2319.47 1189.3 2319.47 1192.06C2319.47 1193.6 2320.18 1194.88 2321.32 1195.84C2437.67 1280.43 2494.53 1443.91 2552.71 1579.52C2609.95 1712.91 2704.37 1808.04 2798.13 1911.77C2801.24 1915.11 2800.86 1915.89 2796.82 1913.57C2701.55 1860.37 2623.99 1814.26 2515.18 1796.72C2357.87 1771.45 2357.59 1687.07 2361.52 1538.69C2361.52 1533.98 2360.6 1533.69 2358.6 1537.76C2305.21 1642.29 2298.71 1750.08 2339.07 1861.3C2340.5 1865.25 2339.57 1869.72 2336.67 1872.62L2309.8 1900.59C2306.52 1903.93 2301.38 1904.07 2297.83 1900.88C2135.55 1750.26 2049.52 1654.84 1879.64 1608.09C1857.71 1602.08 1845.88 1572.26 1845.34 1547.78C1835.4 1130.36 2368.52 1014.35 2657.31 1023.15C2756.45 1026.11 2846.03 1055.38 2926.41 1110.84Z" fill="#D28D43"/>
<path d="M2926.41 1110.84L3023.56 1168.05C3027.38 1170.29 3031.83 1171.3 3036.12 1170.87C3075.39 1166.51 3114.04 1159.98 3152.08 1150.92C3242.68 1129.72 3408.37 1202.02 3494.02 1249.06L3777.52 1591.48C3780.25 1594.82 3780.25 1599.96 3777.35 1603.44L3755.31 1629.29C3752.17 1632.94 3751.9 1638.23 3754.41 1642L3769.65 1665.87C3771.84 1669.24 3771.62 1673.42 3769.51 1676.62L3739.28 1721.86C3738.11 1723.54 3736.11 1724.7 3734.09 1724.7C3732.23 1724.7 3730.38 1723.83 3729.28 1722.29C3552.2 1513.6 3433.86 1287.8 3151.73 1305.31L3150.77 1243.9C3150.77 1243.75 3150.77 1243.75 3150.77 1243.75C3150.77 1239.54 3147.49 1235.91 3143.45 1235.91C3140.07 1235.91 3137.25 1238.32 3136.35 1241.63L3116.63 1308.94C2990.73 1345.88 2915.21 1263.99 2817.16 1201.27C2786.44 1181.61 2748.88 1170.14 2714.06 1153.65C2711.19 1152.28 2709.36 1149.38 2709.36 1146.1C2709.36 1142.79 2711.19 1139.71 2714.06 1138.34C2780.48 1108.43 2851.3 1099.23 2926.41 1110.84Z" fill="#FBD3A3"/>
<path d="M3151.73 1305.31C3158.15 1450.65 3196.6 1594.96 3319.34 1671.33C3321.47 1672.55 3322.89 1674.96 3322.89 1677.66C3322.89 1681.64 3319.78 1684.92 3316.06 1684.92C3315.19 1684.92 3314.37 1684.63 3313.49 1684.34C3162.46 1625.39 3097.46 1470.04 3116.63 1308.94L3136.35 1241.63C3137.25 1238.32 3140.07 1235.91 3143.45 1235.91C3147.49 1235.91 3150.77 1239.54 3150.77 1243.75C3150.77 1243.75 3150.77 1243.75 3150.77 1243.9L3151.73 1305.31Z" fill="#230A01"/>
<path d="M2268.67 2130.65C2189.74 2156.03 2072.65 2019.35 2024.31 1964.27C1909.41 1833.89 1707.63 1805.92 1548.46 1840.39C1422.17 1867.92 1313.04 1994.96 1269.69 2115.38C1220.07 2253.6 1260 2411.94 1331.42 2534.77C1333.68 2538.55 1338.38 2539.91 1342.2 2537.88C1362.83 2526.55 1374.76 2507.97 1377.93 2482.01C1378.31 2478.24 1380.22 2474.75 1382.9 2472.25C1391.69 2465.17 1394.42 2458.55 1391.04 2452.8C1391.04 2452.8 1390.87 2452.6 1390.87 2452.45C1389.59 2449.78 1390.49 2446.41 1393 2444.9C1393.14 2444.9 1393.14 2444.9 1393.28 2444.76C1409.66 2437.06 1416.49 2423.12 1414.03 2403.03C1544.26 2641.72 1704.57 2754.68 1972.83 2704.27C1976.92 2703.57 1981.35 2705.02 1984.3 2708.33C2288.77 3052.14 2738.97 3101.88 3186.77 3298.03C3328.98 3360.52 3896.7 3624.85 3872.83 3825.01C3872.21 3829.48 3869.67 3833.43 3866.01 3835.52C3843.94 3848.07 3823.86 3851.14 3805.98 3844.29C3720.9 3812.58 3611.79 3749.34 3520.43 3715.74C3294.29 3632.78 3053.05 3585.27 2796.82 3573.31C2685.17 3568.14 2584.2 3581.79 2493.88 3614.49C2489.56 3615.94 2489.78 3616.58 2494.15 3616.05C2634.99 3602.64 2767.65 3630.81 2892.27 3700.5C2636.22 3812.87 2323.45 3751.17 2092.72 3602.78C2089.31 3600.66 2087.48 3596.31 2088.41 3592.04C2097.97 3546.25 2116.21 3504.93 2142.65 3468.63C2238.24 3355.82 2330.66 3333.17 2464.57 3389.44C2468.67 3391.01 2473.23 3390.89 2477.49 3389.27C2524.19 3369.46 2488.47 3302.15 2463.83 3279.3C2423.14 3241.47 2327.11 3215.33 2274.84 3190.82C2161.28 3137.6 2027.59 3169.97 1927.54 3237.69C1926.89 3238.16 1926.45 3238.79 1926.12 3239.67C1925.44 3241.47 1926.26 3243.73 1928.09 3244.54C1928.99 3244.83 1929.68 3244.95 1930.44 3244.66C2001.56 3225.44 2072.38 3218.03 2142.65 3222.3C2105.23 3256.57 2065.96 3288.51 2024.86 3317.72C1900.23 3406.63 1757.89 3364.3 1689.47 3222.3C1681.36 3202.64 1679.37 3181.88 1683.19 3160.1L1819.75 3120.03L1979.79 3086.11C1982.33 3085.82 1984.16 3083.59 1984.16 3081.06C1984.16 3078.16 1981.89 3075.75 1979.16 3075.75C1979.05 3075.75 1978.89 3075.75 1978.62 3075.75C1771.68 3082.72 1649.6 3015.06 1458.77 2887.58C1187.89 2707.05 960.609 2440.54 1154.9 2076.64C1418.73 1582.13 2005.82 1742.42 2268.67 2130.65Z" fill="#D28D43"/>
<path d="M2268.67 2130.65C2279.04 2135.5 2289.04 2134.25 2298.6 2126.7C2365.98 2073.8 2440.18 2026.12 2525.12 2016.3C2639.64 2002.89 2782.2 2078.3 2869.14 2152.55C2934.14 2207.95 2978.66 2252.67 3054.42 2284.18C3250.32 2365.05 3391.71 2447.8 3461.85 2673.57C3467.37 2691.72 3479.82 2705.66 3498.5 2715.3C3551.92 2720.18 3605.24 2719.89 3658.55 2714.6C3736.66 2706.68 3784.73 2703.57 3802.7 2704.85C3980.91 2718.38 4096.84 2828.43 4213.95 2970.78C4214.88 2971.99 4215.43 2973.62 4215.43 2975.28C4215.43 2977.74 4214.34 2980.01 4212.51 2981.23C4185.74 2999.67 4175.91 3025.66 4183.09 3059.28C4184.18 3064.22 4182.19 3069.5 4178.09 3072.12L4155.02 3087.36C4150.15 3090.56 4143.76 3089.48 4140.05 3084.95C4055.88 2981.95 3949.77 2923.59 3821.87 2910.14L3838.07 2824.08C3839.51 2816.93 3838.26 2816.35 3834.52 2822.54L3781.61 2910.73C3664.45 2903.47 3468 3060.27 3374.95 2918.57C3308.36 2817.51 3230.11 2727.44 3129.41 2660.3C3062.56 2615.79 2984.04 2576.67 2924.58 2536.31C2776.82 2435.84 2660.75 2328.75 2473.67 2305.17C2475.09 2246.05 2481.5 2187.33 2493.17 2128.97C2493.33 2128.68 2493.33 2128.39 2493.33 2128.24C2493.6 2124.76 2490.98 2121.71 2487.7 2121.42C2487.59 2121.42 2487.32 2121.42 2487.05 2121.42C2473.67 2122.14 2438.08 2276.92 2431.72 2308.77C2359.42 2301.11 2290.32 2302.47 2224.42 2312.84C2116.76 2329.97 1952.02 2362.37 1889.58 2239.25C1887.34 2234.81 1886.3 2229.88 1886.74 2224.85L1888.93 2188.73C1889.2 2184.66 1887.48 2180.71 1884.47 2178.28C1777.77 2085.85 1596.8 2053.03 1493.02 2150.75C1444.35 2196.57 1415.62 2264.23 1406.66 2353.58C1397.98 2369.34 1400.52 2385.81 1414.03 2403.03C1416.49 2423.12 1409.66 2437.06 1393.28 2444.76C1393.14 2444.9 1393.14 2444.9 1393 2444.9C1390.49 2446.41 1389.59 2449.78 1390.87 2452.45C1390.87 2452.6 1391.04 2452.8 1391.04 2452.8C1394.42 2458.55 1391.69 2465.17 1382.9 2472.25C1380.22 2474.75 1378.31 2478.24 1377.93 2482.01C1374.76 2507.97 1362.83 2526.55 1342.21 2537.88C1338.38 2539.91 1333.68 2538.55 1331.42 2534.77C1260 2411.94 1220.07 2253.6 1269.69 2115.38C1313.04 1994.96 1422.17 1867.92 1548.46 1840.39C1707.63 1805.92 1909.41 1833.89 2024.31 1964.27C2072.65 2019.35 2189.74 2156.03 2268.67 2130.65Z" fill="#FBD3A3"/>
<path d="M3709.51 1944.93C3783.03 2049.7 3796.83 2190.53 3712.35 2282.35C3697.82 2297.91 3683.89 2297.45 3670.37 2281.13C3627.58 2229.21 3595.54 2174.62 3574.24 2116.83C3573.06 2113.35 3569.79 2110.97 3566.23 2110.97C3561.76 2110.97 3557.85 2114.89 3557.85 2119.91C3557.85 2120.49 3557.85 2121.27 3557.99 2121.86C3573.06 2206.15 3596 2283.39 3626.59 2353.72C3628.23 2357.35 3626.87 2361.71 3623.59 2363.83C3517.51 2427.83 3360.58 2255.72 3335.67 2160.39C3330.26 2139.28 3336.82 2098.13 3355.12 2036.98C3360.47 2093.6 3488.29 2106.61 3534.23 2105.97C3538.92 2105.97 3543.24 2102.84 3544.93 2098.13L3550.48 2083.44C3552.2 2078.73 3557.03 2076.18 3561.54 2077.43L3580.66 2082.07C3585.02 2083.15 3589.72 2081.93 3593 2078.59C3634.51 2039.59 3673.38 1994.96 3709.51 1944.93Z" fill="#713D11"/>
<path d="M2431.71 2308.77C2387.74 2598.57 2502.53 2742.1 2753.06 2824.77C2757.27 2826.17 2757.7 2825.59 2753.99 2822.54C2581.19 2680.98 2471.94 2552.78 2473.67 2305.17C2660.75 2328.75 2776.82 2435.84 2924.58 2536.31C2984.03 2576.67 3062.56 2615.79 3129.41 2660.3C3230.11 2727.44 3308.36 2817.51 3374.94 2918.57C3467.99 3060.27 3664.45 2903.47 3781.61 2910.73C3757.96 2960.61 3732.72 3009.34 3705.69 3056.96C3648.17 3157.72 3638.5 3248.03 3631.86 3368.83C3631.67 3371.44 3629.68 3373.53 3627.3 3373.53C3626.59 3373.53 3625.85 3373.24 3625.31 3372.89C3555.31 3335.14 3352.47 3245.24 3319.01 3177.52C3257.56 3052.31 3175.76 2945.37 3073.81 2856.89C3014.08 2805.03 2975.21 2740.85 2924.96 2680.98C2921.03 2676.19 2920.32 2676.62 2922.99 2682.37C2982.75 2806.19 3017.49 2937.67 3027.38 3076.76C3027.38 3076.91 3027.38 3076.91 3027.38 3076.91C3027.38 3079.67 3025.41 3081.76 3023.01 3081.76C3022.35 3081.76 3021.72 3081.64 3021.18 3081.47C2839.2 2996.91 2654.47 2919.96 2466.84 2850.56C2189.13 2747.71 2036.14 2606.87 1872.38 2349.31C1840.37 2298.99 1766.3 2190.53 1707.77 2176.94C1706.95 2176.74 1706.21 2176.59 1705.39 2176.59C1699.38 2176.59 1694.47 2181.88 1694.47 2188.44C1694.47 2190.24 1694.85 2192.04 1695.56 2193.72C1766.02 2338.62 1839.96 2478.93 1917.33 2614.77C1917.88 2615.79 1918.2 2616.86 1918.2 2617.91C1918.2 2621.22 1915.75 2624.01 1912.8 2624.12C1711.4 2634.58 1518.64 2530.21 1406.66 2353.58C1415.62 2264.23 1444.35 2196.57 1493.02 2150.75C1596.8 2053.04 1777.77 2085.85 1884.47 2178.28C1887.48 2180.71 1889.2 2184.66 1888.93 2188.73L1886.74 2224.85C1886.3 2229.88 1887.34 2234.81 1889.58 2239.25C1952.02 2362.38 2116.76 2329.97 2224.42 2312.84C2290.32 2302.47 2359.42 2301.11 2431.71 2308.77Z" fill="#D28D43"/>
<path d="M2473.67 2305.17C2471.94 2552.78 2581.19 2680.98 2753.99 2822.54C2757.71 2825.59 2757.27 2826.17 2753.06 2824.77C2502.53 2742.1 2387.74 2598.57 2431.72 2308.77C2438.08 2276.92 2473.67 2122.15 2487.05 2121.42C2487.32 2121.42 2487.59 2121.42 2487.7 2121.42C2490.98 2121.71 2493.6 2124.76 2493.33 2128.24C2493.33 2128.39 2493.33 2128.68 2493.17 2128.97C2481.5 2187.34 2475.09 2246.05 2473.67 2305.17Z" fill="#230A01"/>
<path d="M3781.61 2910.73L3834.51 2822.54C3838.26 2816.35 3839.51 2816.93 3838.06 2824.08L3821.87 2910.14C3752.03 3075.6 3720.63 3210.92 3810.94 3377.74C3813.21 3381.81 3815.21 3381.66 3817.04 3377.16C3857.73 3267.6 3931.93 3201.28 4039.81 3177.96C4040.09 3177.82 4040.36 3177.82 4040.53 3177.82C4042.9 3177.82 4044.73 3179.91 4044.73 3182.4C4044.73 3183.86 4044.08 3185.22 4042.9 3186C3953.46 3245.82 3841.34 3398.79 3891.6 3517.5C3913.8 3570.41 4047.08 3777.3 4122.3 3754.36C4179.46 3736.79 4237.09 3720.47 4295.12 3705.37C4299.55 3704.27 4299.71 3704.71 4295.72 3706.65C4238.92 3735.28 4194.02 3764.9 4161.02 3795.45C4077.04 3873.33 4106.54 3992.38 4133.98 4085.97C4134.12 4086.64 4134.26 4087.34 4134.26 4087.92C4134.26 4091.78 4131.25 4094.89 4127.7 4094.89C4126.67 4094.89 4125.57 4094.6 4124.7 4094.19C3943.35 3992.09 3791.55 4067.24 3696.4 4244.96C3694 4249.31 3691.76 4249.17 3689.68 4244.66C3685.04 4234.36 3684.03 4223.03 3686.62 4210.46C3707.11 4112.02 3746.38 4012.22 3642.51 3944.65C3544.93 3881.26 3441.09 3838.14 3331.08 3815.43C3135.7 3775.36 2971.39 3775.47 2834.23 3932.36C2828.82 3933.73 2824.62 3933.52 2821.61 3931.7C2818.06 3929.46 2816.62 3924.44 2818.61 3920.66C2851.44 3857.01 2914.04 3812.87 2963.69 3762.49C2966.56 3759.68 2967.1 3754.94 2964.83 3751.46C2947.25 3722.42 2922.99 3705.37 2892.27 3700.5C2767.65 3630.81 2634.99 3602.64 2494.15 3616.05C2489.78 3616.58 2489.56 3615.94 2493.88 3614.49C2584.19 3581.79 2685.17 3568.14 2796.81 3573.31C3053.05 3585.27 3294.29 3632.78 3520.43 3715.74C3611.79 3749.34 3720.9 3812.58 3805.97 3844.29C3823.86 3851.14 3843.94 3848.07 3866 3835.52C3869.66 3833.43 3872.2 3829.48 3872.83 3825.01C3896.7 3624.85 3328.98 3360.52 3186.77 3298.03C2738.97 3101.88 2288.77 3052.14 1984.3 2708.33C1981.35 2705.02 1976.92 2703.57 1972.83 2704.27C1704.57 2754.68 1544.25 2641.72 1414.03 2403.03C1400.51 2385.81 1397.97 2369.34 1406.66 2353.58C1518.64 2530.21 1711.4 2634.58 1912.8 2624.12C1915.75 2624.01 1918.2 2621.22 1918.2 2617.91C1918.2 2616.86 1917.88 2615.79 1917.33 2614.77C1839.96 2478.93 1766.02 2338.62 1695.56 2193.72C1694.85 2192.04 1694.47 2190.24 1694.47 2188.44C1694.47 2181.88 1699.38 2176.59 1705.39 2176.59C1706.21 2176.59 1706.95 2176.74 1707.77 2176.94C1766.3 2190.53 1840.37 2298.99 1872.38 2349.31C2036.13 2606.87 2189.13 2747.71 2466.84 2850.56C2654.47 2919.96 2839.2 2996.91 3021.18 3081.47C3021.72 3081.64 3022.35 3081.76 3023.01 3081.76C3025.41 3081.76 3027.38 3079.67 3027.38 3076.91C3027.38 3076.91 3027.38 3076.91 3027.38 3076.76C3017.49 2937.67 2982.75 2806.19 2922.99 2682.37C2920.32 2676.62 2921.03 2676.19 2924.96 2680.98C2975.21 2740.85 3014.08 2805.03 3073.81 2856.89C3175.76 2945.37 3257.56 3052.31 3319.01 3177.52C3352.47 3245.24 3555.31 3335.14 3625.31 3372.89C3625.85 3373.24 3626.59 3373.53 3627.3 3373.53C3629.68 3373.53 3631.67 3371.44 3631.86 3368.83C3638.5 3248.03 3648.17 3157.72 3705.69 3056.96C3732.72 3009.34 3757.96 2960.61 3781.61 2910.73Z" fill="#230A01"/>
<path d="M4722.6 2376.89C4725.42 2357.5 4731.29 2356.39 4740.08 2373.7L4779.08 2449.89C4781.49 2454.54 4785.15 2458.2 4789.6 2460.35C4974.5 2551.82 5100.4 2700.78 5167.23 2907.12C5169.36 2913.8 5168.82 2913.92 5165.4 2907.82C5065.72 2721.86 4953.88 2581.81 4756.42 2515.81C4708.21 2499.78 4716.76 2417.26 4722.6 2376.89Z" fill="#713D11"/>
<path d="M2002.38 5283.49C1384.76 4976.19 815.912 4438.87 560.003 3753.4C533.238 3682.06 503.141 3591.02 469.275 3480.33C386.166 3208.94 292.132 2881.11 349.377 2594.5C350.197 2589.65 350.852 2589.8 351.48 2594.68C362.405 2694.34 372.1 2758.57 380.239 2787.31C517.07 3263.42 854.148 3641.49 1216.9 3937.79C1626.19 4271.9 2050.61 4582.52 2490.33 4869.85C2811.51 5079.79 3127.83 5251.35 3509.51 5322.26C3812.8 5378.82 4117.33 5389.05 4423.27 5352.75C4803.25 5307.88 5152.02 5172.95 5508.08 5053.31C5813.15 4950.52 6158.45 4946.74 6471.63 5007.78C6474.09 5008.3 6475.95 5010.54 6475.95 5013.24C6475.95 5015.97 6474.09 5018.23 6471.52 5018.67C6210.34 5058.3 5922.01 5100.64 5686.15 5177.65C5475.8 5246.32 5330.72 5449.44 5153.2 5589.64C4766.25 5894.83 4283.16 5973.29 3817.94 5889.95C3190.43 5777.43 2599.95 5580.69 2002.38 5283.49ZM778.359 3898.48C785.46 4198.73 977.815 4338.4 1186.2 4517.77C1226.73 4552.76 1263.82 4577.38 1297.55 4591.9C1301.84 4593.84 1302.82 4592.68 1300.83 4588.12C1282.45 4549.13 1263.41 4518.72 1243.34 4496.77C1073.51 4311.51 925.295 4109.93 798.706 3891.91C797.668 3890.35 796.248 3888.81 794.555 3887.73C789.283 3884.89 782.592 3886.98 779.643 3892.58C778.769 3894.41 778.359 3896.5 778.359 3898.48ZM1166.65 4176.43C1364.27 4507.22 1655.88 4753.41 1976.51 4932.34C1977.33 4932.8 1978.23 4932.92 1979.16 4932.92C1982.44 4932.92 1985.17 4930.02 1985.17 4926.62C1985.17 4924.96 1984.63 4923.42 1983.62 4922.35C1957.31 4893.6 1928.45 4860.5 1897.58 4836.46C1635.39 4631.68 1394.42 4409.37 1174.65 4169.69C1173.64 4168.59 1172.38 4168.15 1171.1 4168.15C1168.23 4168.15 1165.83 4170.56 1165.83 4173.58C1165.83 4174.63 1166.1 4175.55 1166.65 4176.43ZM1623.84 4885.3C1857.98 5105.93 2111.35 5246.47 2394.74 5355.51C2412.32 5362.33 2430.84 5365.18 2449.9 5364.01C2454.74 5363.64 2455.28 5361.81 2451.87 5358.56C2433.85 5340.41 2419.42 5328.3 2408.77 5321.91C2113.07 5148.9 1816.74 4976.65 1536.25 4775.82C1532.43 4772.92 1531.69 4773.68 1534.15 4777.94C1553.05 4811.05 1582.87 4846.76 1623.84 4885.3ZM2180.07 5042.57C2563.08 5370.75 3078.81 5600.38 3563.23 5618.68C3691.76 5623.67 3841.34 5621.7 3966.07 5585.57C3970.53 5584.32 3970.53 5583.37 3965.8 5582.96C3837.38 5571.17 3694 5570.1 3579.62 5555.14C3076.76 5489.52 2622.7 5302.57 2183.89 5036.67C2183.45 5036.38 2182.91 5036.24 2182.31 5036.24C2180.45 5036.24 2178.89 5037.92 2178.89 5039.87C2178.89 5040.94 2179.36 5041.81 2180.07 5042.57ZM3854.73 5742.49C4130.44 5838.12 4475.52 5725.88 4702.83 5556.01C4733.69 5533.07 4761.11 5505.54 4785.15 5473.2C4788.15 5469.42 4787.33 5468.32 4783.04 5469.83C4723.04 5492.36 4663.01 5515.21 4603.14 5538.24C4400.82 5615.6 4192.98 5664.03 3979.62 5691.56C3961.32 5693.94 3847.9 5711.8 3846.45 5728.93C3845.9 5734.94 3849.35 5740.55 3854.73 5742.49Z" fill="#90531B"/>
<path d="M4775.94 3993.26C4604.24 4380.62 4175.36 4503.91 3805.37 4439.16C3603.1 4403.73 3452.29 4189.26 3543.51 3974.55C3544.19 3972.73 3544.82 3970.61 3544.82 3968.51C3544.82 3960.33 3538.38 3953.47 3530.67 3953.47C3528.27 3953.47 3526.03 3954.14 3523.98 3955.3C3427.03 4010.68 3327.53 4078.28 3219.6 4090.82C3073.97 4107.75 2934.14 4082.87 2800.23 4015.7L2796.27 4007.77L2834.23 3932.36C2971.39 3775.47 3135.7 3775.36 3331.08 3815.43C3441.09 3838.14 3544.93 3881.26 3642.52 3944.65C3746.38 4012.22 3707.11 4112.02 3686.62 4210.46C3684.03 4223.03 3685.04 4234.36 3689.68 4244.66C3691.76 4249.17 3694 4249.31 3696.4 4244.96C3791.55 4067.24 3943.35 3992.09 4124.7 4094.19C4125.57 4094.6 4126.67 4094.89 4127.7 4094.89C4131.25 4094.89 4134.26 4091.78 4134.26 4087.92C4134.26 4087.34 4134.12 4086.64 4133.99 4085.97C4106.54 3992.38 4077.04 3873.33 4161.02 3795.45C4194.02 3764.9 4238.92 3735.28 4295.72 3706.65C4299.71 3704.71 4299.55 3704.27 4295.12 3705.37C4237.09 3720.47 4179.46 3736.79 4122.3 3754.36C4047.08 3777.3 3913.8 3570.41 3891.6 3517.5C3841.34 3398.79 3953.46 3245.82 4042.9 3186C4044.08 3185.22 4044.73 3183.85 4044.73 3182.4C4044.73 3179.91 4042.9 3177.82 4040.53 3177.82C4040.36 3177.82 4040.09 3177.82 4039.82 3177.96C3931.94 3201.28 3857.73 3267.6 3817.04 3377.16C3815.21 3381.66 3813.21 3381.81 3810.95 3377.74C3720.63 3210.92 3752.03 3075.6 3821.87 2910.14C3949.77 2923.59 4055.87 2981.95 4140.05 3084.95C4143.76 3089.48 4150.15 3090.56 4155.02 3087.36L4178.09 3072.12C4182.19 3069.5 4184.18 3064.22 4183.09 3059.28C4175.91 3025.66 4185.74 2999.67 4212.51 2981.23C4214.34 2980.01 4215.43 2977.74 4215.43 2975.28C4215.43 2973.62 4214.88 2971.99 4213.95 2970.78C4096.84 2828.43 3980.9 2718.38 3802.7 2704.85C3784.73 2703.57 3736.66 2706.68 3658.55 2714.6C3605.24 2719.89 3551.92 2720.18 3498.5 2715.3C3814.93 2523.88 4064.01 2681.5 4278.96 2931.57C4362.45 3028.85 4439.82 3187.34 4392.02 3315.45C4379.02 3350.24 4325.99 3452.57 4351.44 3482.13C4354.44 3485.38 4358.54 3487.59 4362.86 3488.17C4484.72 3504.06 4581.35 3508.12 4666.42 3624.71C4745.08 3732.58 4781.6 3855.5 4775.94 3993.26Z" fill="#D28D43"/>
<path d="M4415.89 2779.77C4630.56 2856.72 4757.83 3018.25 4797.71 3264.35C4808.63 3331.37 4845.78 3387.9 4909.36 3434.16C4830.84 3443.51 4760.73 3426.9 4699.01 3384.27C4616.44 3327.22 4611.45 3197.04 4577.52 3106.91C4546.8 3025.37 4499.96 2967.29 4452.93 2902.54C4426.82 2866.76 4419.06 2831.34 4409.78 2789C4409.34 2786.73 4410.51 2784.41 4412.51 2783.54C4414.06 2782.61 4415.24 2781.45 4415.89 2779.77Z" fill="#713D11"/>
<path d="M1819.75 3120.03L1683.19 3160.1L1693.7 3087.51C1694.47 3083.15 1698.13 3079.96 1702.12 3080.39C1743.96 3084.55 1783.23 3097.82 1819.75 3120.03Z" fill="#713D11"/>
<path d="M2142.65 3468.63C2138.66 3471.82 2134.73 3473.94 2130.55 3474.73C2130.14 3474.73 2129.87 3474.73 2129.54 3474.73C2126.59 3474.73 2124 3472.11 2124 3468.92C2124 3467.9 2124.27 3466.8 2125.01 3465.81C2163.24 3403.15 2208.25 3351.11 2259.87 3309.7C2265.01 3305.44 2268.01 3299.13 2268.01 3292.28C2268.01 3285.49 2265.01 3279.16 2259.87 3275.09C2224.31 3246.2 2185.31 3228.49 2142.65 3222.3C2072.38 3218.03 2001.56 3225.44 1930.44 3244.66C1929.67 3244.95 1928.99 3244.83 1928.09 3244.54C1926.26 3243.73 1925.44 3241.47 1926.12 3239.67C1926.45 3238.79 1926.89 3238.16 1927.54 3237.69C2027.59 3169.97 2161.28 3137.6 2274.84 3190.82C2327.11 3215.33 2423.14 3241.47 2463.83 3279.3C2488.47 3302.15 2524.19 3369.46 2477.49 3389.27C2473.23 3390.89 2468.67 3391.01 2464.57 3389.44C2330.66 3333.17 2238.24 3355.82 2142.65 3468.63Z" fill="#230A01"/>
<path d="M1689.47 3222.3C1757.89 3364.3 1900.23 3406.63 2024.86 3317.72C2065.96 3288.51 2105.23 3256.57 2142.65 3222.3C2185.31 3228.49 2224.31 3246.2 2259.87 3275.09C2265.01 3279.16 2268.01 3285.49 2268.01 3292.28C2268.01 3299.14 2265.01 3305.44 2259.87 3309.7C2208.25 3351.11 2163.24 3403.15 2125.01 3465.81C2124.27 3466.8 2124 3467.9 2124 3468.92C2124 3472.11 2126.59 3474.73 2129.54 3474.73C2129.87 3474.73 2130.14 3474.73 2130.55 3474.73C2134.73 3473.94 2138.66 3471.82 2142.65 3468.63C2116.21 3504.93 2097.97 3546.25 2088.41 3592.04C2087.48 3596.31 2089.31 3600.66 2092.72 3602.78C2323.45 3751.17 2636.22 3812.87 2892.27 3700.5C2922.99 3705.37 2947.25 3722.42 2964.84 3751.46C2967.1 3754.94 2966.56 3759.67 2963.69 3762.49C2914.04 3812.87 2851.44 3857.01 2818.61 3920.66C2816.62 3924.44 2818.06 3929.46 2821.61 3931.7C2824.62 3933.52 2828.82 3933.73 2834.23 3932.36L2796.27 4007.77C2778.19 3972.14 2770.38 3938.08 2772.64 3905.74C2772.78 3905.15 2772.78 3904.49 2772.78 3903.91C2772.64 3891.8 2763.28 3881.98 2752.16 3882.13C2751.48 3882.13 2750.88 3882.27 2750.17 3882.27C2548.5 3903.03 2147.48 3854.74 2079.34 3594.8C2078.03 3589.8 2073.55 3586.32 2068.55 3586.9C1964.85 3597.64 1876.91 3563 1804.81 3482.86C1752.92 3425.07 1682.51 3305.58 1689.47 3222.3Z" fill="#713D11"/>
<path d="M4980.91 3486.63C5082.19 3618.96 5081.48 3783.4 5032.53 3938.26C5000.52 4039.6 5109.06 4029.73 5157.13 4002.49C5263.53 3942.32 5340.2 3850.97 5387.31 3728.6C5378.52 4060.13 5189.44 4310.14 4892.56 4401.47C4891.88 4401.76 4891 4401.76 4890.29 4401.76C4885.46 4401.76 4881.5 4397.69 4881.5 4392.53C4881.5 4391.07 4881.91 4389.71 4882.46 4388.34C4996.26 4160.11 5005.09 3927.34 4909.09 3690.04C4889.75 3642.28 4855.42 3586.03 4833.1 3534.11C4831.85 3530.97 4831.11 3527.49 4831.11 3524C4831.11 3511.31 4840.21 3500.72 4852.22 3499.5L4980.91 3486.63Z" fill="#713D11"/>
<path d="M1186.2 4517.77C977.815 4338.4 785.46 4198.73 778.359 3898.48C778.359 3896.5 778.769 3894.41 779.643 3892.58C782.592 3886.98 789.284 3884.89 794.555 3887.73C796.248 3888.81 797.668 3890.34 798.706 3891.91C925.295 4109.93 1073.51 4311.51 1243.34 4496.77C1263.41 4518.72 1282.45 4549.13 1300.83 4588.12C1302.82 4592.68 1301.84 4593.84 1297.55 4591.9C1263.82 4577.38 1226.73 4552.76 1186.2 4517.77Z" fill="#230A01"/>
<path d="M4775.94 3993.26C4757.02 4156.74 4690.32 4291.07 4575.67 4396.18C4477.24 4486.61 4374.93 4509.34 4236.27 4509.2C4041.35 4508.97 3821.76 4498.31 3577.24 4477.26C3509.24 4471.51 3460.7 4465.29 3431.67 4458.82C3427.16 4457.86 3423.12 4454.75 3420.88 4450.31C3382.78 4373.53 3357.57 4292.14 3345.23 4205.99C3345.23 4205.61 3345.23 4205.46 3345.23 4205.17C3343.37 4195.24 3333.98 4188.56 3324.42 4190.36C3324.25 4190.51 3323.98 4190.51 3323.87 4190.51C3130.42 4237.41 2883.45 4258.25 2800.23 4015.7C2934.14 4082.87 3073.97 4107.75 3219.6 4090.82C3327.53 4078.28 3427.03 4010.68 3523.98 3955.3C3526.03 3954.14 3528.27 3953.47 3530.67 3953.47C3538.38 3953.47 3544.82 3960.33 3544.82 3968.52C3544.82 3970.61 3544.19 3972.73 3543.51 3974.56C3452.29 4189.26 3603.1 4403.73 3805.37 4439.16C4175.36 4503.91 4604.23 4380.62 4775.94 3993.26Z" fill="#713D11"/>
<path d="M5584.64 4018.69C5602.94 4135.63 5604.11 4252.79 5588.05 4370.05C5594.66 4252.5 5580.89 4136.64 5584.64 4018.69Z" fill="#713D11"/>
<path d="M1976.51 4932.34C1655.88 4753.41 1364.27 4507.22 1166.65 4176.43C1166.1 4175.55 1165.83 4174.63 1165.83 4173.58C1165.83 4170.56 1168.23 4168.15 1171.1 4168.15C1172.38 4168.15 1173.64 4168.59 1174.65 4169.69C1394.42 4409.37 1635.39 4631.68 1897.58 4836.46C1928.45 4860.5 1957.31 4893.6 1983.62 4922.35C1984.63 4923.42 1985.17 4924.96 1985.17 4926.62C1985.17 4930.02 1982.44 4932.92 1979.16 4932.92C1978.23 4932.92 1977.33 4932.8 1976.51 4932.34Z" fill="#230A01"/>
<path d="M1623.84 4885.3C1582.87 4846.76 1553.05 4811.05 1534.15 4777.94C1531.69 4773.67 1532.43 4772.92 1536.25 4775.82C1816.74 4976.65 2113.07 5148.9 2408.77 5321.91C2419.42 5328.3 2433.85 5340.41 2451.87 5358.55C2455.28 5361.81 2454.74 5363.64 2449.9 5364.01C2430.84 5365.17 2412.32 5362.33 2394.74 5355.51C2111.35 5246.47 1857.98 5105.93 1623.84 4885.3Z" fill="#230A01"/>
<path d="M2180.07 5042.57C2179.36 5041.81 2178.89 5040.94 2178.89 5039.87C2178.89 5037.92 2180.45 5036.24 2182.31 5036.24C2182.91 5036.24 2183.45 5036.38 2183.89 5036.67C2622.7 5302.57 3076.76 5489.52 3579.62 5555.14C3694 5570.1 3837.38 5571.17 3965.8 5582.96C3970.53 5583.37 3970.53 5584.32 3966.07 5585.57C3841.34 5621.7 3691.76 5623.67 3563.23 5618.68C3078.81 5600.38 2563.08 5370.75 2180.07 5042.57Z" fill="#230A01"/>
<path d="M3854.73 5742.49C3849.34 5740.55 3845.9 5734.94 3846.45 5728.93C3847.9 5711.8 3961.32 5693.94 3979.62 5691.56C4192.98 5664.03 4400.82 5615.6 4603.14 5538.24C4663.01 5515.21 4723.04 5492.36 4783.04 5469.83C4787.33 5468.32 4788.15 5469.42 4785.15 5473.2C4761.11 5505.54 4733.69 5533.07 4702.83 5556.01C4475.52 5725.88 4130.43 5838.11 3854.73 5742.49Z" fill="#230A01"/>
</svg>
